{
  "accessors": [
    {
      "bufferView": 2,
      "componentType": 5126,
      "count": 5027,
      "max": [
        3.863295793533325,
        4.2098774909973145,
        6.145260810852051
      ],
      "min": [
        0.20430389046669006,
        0.1921834647655487,
        2.7864887714385986
      ],
      "type": "VEC3"
    },
    {
      "bufferView": 2,
      "byteOffset": 60324,
      "componentType": 5126,
      "count": 5027,
      "max": [
        0.9998837113380432,
        0.9983075261116028,
        0.9999135136604309
      ],
      "min": [
        -0.9998837113380432,
        -0.9995064735412598,
        -0.9999528527259827
      ],
      "type": "VEC3"
    },
    {
      "bufferView": 0,
      "componentType": 5125,
      "count": 25734,
      "type": "SCALAR"
    },
    {
      "bufferView": 2,
      "byteOffset": 120648,
      "componentType": 5126,
      "count": 9150,
      "max": [
        3.93467378616333,
        4.267511367797852,
        6.145260810852051
      ],
      "min": [
        0.13292595744132996,
        0.03502747043967247,
        5.6260277686570603e-11
      ],
      "type": "VEC3"
    },
    {
      "bufferView": 2,
      "byteOffset": 230448,
      "componentType": 5126,
      "count": 9150,
      "max": [
        1.0,
        1.0,
        1.0
      ],
      "min": [
        -1.0,
        -1.0,
        -1.0
      ],
      "type": "VEC3"
    },
    {
      "bufferView": 0,
      "byteOffset": 102936,
      "componentType": 5125,
      "count": 44742,
      "type": "SCALAR"
    },
    {
      "bufferView": 2,
      "byteOffset": 340248,
      "componentType": 5126,
      "count": 1624,
      "max": [
        3.885768413543701,
        4.2098774909973145,
        6.145260810852051
      ],
      "min": [
        0.18183133006095886,
        0.04952332004904747,
        5.6260277686570603e-11
      ],
      "type": "VEC3"
    },
    {
      "bufferView": 0,
      "byteOffset": 281904,
      "componentType": 5125,
      "count": 3288,
      "type": "SCALAR"
    },
    {
      "bufferView": 2,
      "byteOffset": 359736,
      "componentType": 5126,
      "count": 1262,
      "max": [
        3.8679494857788086,
        4.2098774909973145,
        6.145260810852051
      ],
      "min": [
        0.1996503472328186,
        0.3424912989139557,
        2.8242666721343994
      ],
      "type": "VEC3"
    },
    {
      "bufferView": 2,
      "byteOffset": 374880,
      "componentType": 5126,
      "count": 1262,
      "max": [
        0.9804518818855286,
        0.9357953071594238,
        0.9989721179008484
      ],
      "min": [
        -0.9804518818855286,
        -0.9999860525131226,
        -0.9999528527259827
      ],
      "type": "VEC3"
    },
    {
      "bufferView": 0,
      "byteOffset": 295056,
      "componentType": 5125,
      "count": 3600,
      "type": "SCALAR"
    },
    {
      "bufferView": 2,
      "byteOffset": 390024,
      "componentType": 5126,
      "count": 8468,
      "max": [
        3.93467378616333,
        4.267511367797852,
        6.14497709274292
      ],
      "min": [
        0.13292595744132996,
        0.6823972463607788,
        2.796062707901001
      ],
      "type": "VEC3"
    },
    {
      "bufferView": 2,
      "byteOffset": 491640,
      "componentType": 5126,
      "count": 8468,
      "max": [
        0.9996259212493896,
        0.9991517663002014,
        0.9767047166824341
      ],
      "min": [
        -0.9996259212493896,
        -0.9927321076393127,
        -0.9981947541236877
      ],
      "type": "VEC3"
    },
    {
      "bufferView": 1,
      "componentType": 5126,
      "count": 8468,
      "max": [
        0.26090550422668457,
        0.41996100544929504
      ],
      "min": [
        -0.26090550422668457,
        -0.14082959294319153
      ],
      "type": "VEC2"
    },
    {
      "bufferView": 0,
      "byteOffset": 309456,
      "componentType": 5125,
      "count": 10704,
      "type": "SCALAR"
    },
    {
      "bufferView": 2,
      "byteOffset": 593256,
      "componentType": 5126,
      "count": 320,
      "max": [
        3.885768413543701,
        3.6377112865448,
        0.04881890118122101
      ],
      "min": [
        0.18183133006095886,
        0.04952332004904747,
        5.6260277686570603e-11
      ],
      "type": "VEC3"
    },
    {
      "bufferView": 2,
      "byteOffset": 597096,
      "componentType": 5126,
      "count": 320,
      "max": [
        1.0,
        1.0,
        1.0
      ],
      "min": [
        -1.0,
        -1.0,
        -1.0
      ],
      "type": "VEC3"
    },
    {
      "bufferView": 0,
      "byteOffset": 352272,
      "componentType": 5125,
      "count": 912,
      "type": "SCALAR"
    },
    {
      "bufferView": 2,
      "byteOffset": 600936,
      "componentType": 5126,
      "count": 720,
      "max": [
        3.889744758605957,
        3.646782398223877,
        3.0566928386688232
      ],
      "min": [
        0.17785507440567017,
        0.03502747043967247,
        0.008246519602835178
      ],
      "type": "VEC3"
    },
    {
      "bufferView": 2,
      "byteOffset": 609576,
      "componentType": 5126,
      "count": 720,
      "max": [
        0.9951685667037964,
        0.9947356581687927,
        1.0
      ],
      "min": [
        -0.9951685667037964,
        -0.9853136539459229,
        -1.0
      ],
      "type": "VEC3"
    },
    {
      "bufferView": 0,
      "byteOffset": 355920,
      "componentType": 5125,
      "count": 3792,
      "type": "SCALAR"
    }
  ],
  "asset": {
    "extras": {
      "author": "drecoooo (https://sketchfab.com/drecoooo)",
      "license": "CC-BY-4.0 (http://creativecommons.org/licenses/by/4.0/)",
      "source": "https://sketchfab.com/3d-models/kursi-4b2c95f72f4643f49237b57fc0200d99",
      "title": "Kursi"
    },
    "generator": "Sketchfab-12.66.0",
    "version": "2.0"
  },
  "bufferViews": [
    {
      "buffer": 0,
      "byteLength": 371088,
      "name": "floatBufferViews",
      "target": 34963
    },
    {
      "buffer": 0,
      "byteLength": 67744,
      "byteOffset": 371088,
      "byteStride": 8,
      "name": "floatBufferViews",
      "target": 34962
    },
    {
      "buffer": 0,
      "byteLength": 618216,
      "byteOffset": 438832,
      "byteStride": 12,
      "name": "floatBufferViews",
      "target": 34962
    }
  ],
  "buffers": [
    {
      "byteLength": 1057048,
      "uri": "scene.bin"
    }
  ],
  "materials": [
    {
      "name": "auto_5",
      "pbrMetallicRoughness": {
        "baseColorFactor": [
          0.172549,
          0.172549,
          0.172549,
          1.0
        ],
        "metallicFactor": 0.0,
        "roughnessFactor": 0.6
      }
    },
    {
      "name": "material",
      "pbrMetallicRoughness": {
        "baseColorFactor": [
          0.643137,
          0.698039,
          0.733333,
          1.0
        ],
        "metallicFactor": 0.0,
        "roughnessFactor": 0.6
      }
    },
    {
      "name": "edge_color000255",
      "pbrMetallicRoughness": {
        "metallicFactor": 0.0,
        "roughnessFactor": 0.6
      }
    },
    {
      "name": "auto_38",
      "pbrMetallicRoughness": {
        "baseColorFactor": [
          0.0588235,
          0.0588235,
          0.0588235,
          1.0
        ],
        "metallicFactor": 0.0,
        "roughnessFactor": 0.6
      }
    },
    {
      "name": "Suede_Dark_Gray",
      "pbrMetallicRoughness": {
        "metallicFactor": 0.0,
        "roughnessFactor": 0.6
      }
    },
    {
      "name": "auto_6",
      "pbrMetallicRoughness": {
        "baseColorFactor": [
          0.478431,
          0.478431,
          0.478431,
          1.0
        ],
        "metallicFactor": 0.0,
        "roughnessFactor": 0.6
      }
    },
    {
      "name": "auto_7",
      "pbrMetallicRoughness": {
        "baseColorFactor": [
          0.0156863,
          0.0117647,
          0.0117647,
          1.0
        ],
        "metallicFactor": 0.0,
        "roughnessFactor": 0.6
      }
    }
  ],
  "meshes": [
    {
      "name": "Material2",
      "primitives": [
        {
          "attributes": {
            "NORMAL": 1,
            "POSITION": 0
          },
          "indices": 2,
          "material": 0,
          "mode": 4
        }
      ]
    },
    {
      "name": "Material2",
      "primitives": [
        {
          "attributes": {
            "NORMAL": 4,
            "POSITION": 3
          },
          "indices": 5,
          "material": 1,
          "mode": 4
        }
      ]
    },
    {
      "name": "Material4",
      "primitives": [
        {
          "attributes": {
            "POSITION": 6
          },
          "indices": 7,
          "material": 2,
          "mode": 1
        }
      ]
    },
    {
      "name": "Material3",
      "primitives": [
        {
          "attributes": {
            "NORMAL": 9,
            "POSITION": 8
          },
          "indices": 10,
          "material": 3,
          "mode": 4
        }
      ]
    },
    {
      "name": "Material3",
      "primitives": [
        {
          "attributes": {
            "NORMAL": 12,
            "POSITION": 11,
            "TEXCOORD_0": 13
          },
          "indices": 14,
          "material": 4,
          "mode": 4
        }
      ]
    },
    {
      "name": "Material3",
      "primitives": [
        {
          "attributes": {
            "NORMAL": 16,
            "POSITION": 15
          },
          "indices": 17,
          "material": 5,
          "mode": 4
        }
      ]
    },
    {
      "name": "Material3",
      "primitives": [
        {
          "attributes": {
            "NORMAL": 19,
            "POSITION": 18
          },
          "indices": 20,
          "material": 6,
          "mode": 4
        }
      ]
    }
  ],
  "nodes": [
    {
      "children": [
        1
      ],
      "matrix": [
        1.0,
        0.0,
        0.0,
        0.0,
        0.0,
        2.220446049250313e-16,
        -1.0,
        0.0,
        0.0,
        1.0,
        2.220446049250313e-16,
        0.0,
        0.0,
        0.0,
        0.0,
        1.0
      ],
      "name": "Sketchfab_model"
    },
    {
      "children": [
        2,
        3,
        4,
        5,
        6,
        7,
        8,
        9
      ],
      "name": "Collada visual scene group"
    },
    {
      "mesh": 0,
      "name": "Material2"
    },
    {
      "mesh": 1,
      "name": "Material2"
    },
    {
      "mesh": 2,
      "name": "Material4"
    },
    {
      "mesh": 3,
      "name": "Material3"
    },
    {
      "mesh": 4,
      "name": "Material3"
    },
    {
      "mesh": 5,
      "name": "Material3"
    },
    {
      "mesh": 6,
      "name": "Material3"
    },
    {
      "children": [
        10
      ],
      "name": "SketchUp"
    },
    {
      "children": [
        11
      ],
      "matrix": [
        0.8950876,
        0.4458904,
        -2.775558e-17,
        0.0,
        -0.2078224,
        0.4171861,
        0.8847404,
        0.0,
        0.3944972,
        -0.7919202,
        0.4660841,
        0.0,
        8.902939,
        -11.74967,
        12.78726,
        1.0
      ],
      "name": "skp_camera_Last_Saved_SketchUp_View"
    },
    {
      "name": "ID1"
    }
  ],
  "scene": 0,
  "scenes": [
    {
      "name": "Sketchfab_Scene",
      "nodes": [
        0
      ]
    }
  ]
}
